<svg xmlns="http://www.w3.org/2000/svg" width="1200" height="800" viewBox="0 0 1200 800">
  <defs>
    <linearGradient id="g" x1="0%" y1="0%" x2="100%" y2="100%">
      <stop offset="0%" style="stop-color:#F97316;stop-opacity:0.25"/>
      <stop offset="100%" style="stop-color:#1a1a2e;stop-opacity:1"/>
    </linearGradient>
  </defs>
  <rect fill="url(#g)" width="1200" height="800"/>

  <text x="600" y="104" text-anchor="middle" fill="white" fill-opacity="0.85" font-family="system-ui,sans-serif" font-size="34" font-weight="bold" letter-spacing="1">WIDE BT ROADS, KERBS &amp; FOOTPATHS</text>
  <text x="600" y="136" text-anchor="middle" fill="white" fill-opacity="0.4" font-family="system-ui,sans-serif" font-size="15" letter-spacing="3">ILLUSTRATIVE / INDICATIVE ONLY</text>

  <rect x="180" y="180" width="840" height="440" rx="0" fill="#11111f"/>
  <line x1="200" y1="400" x2="1000" y2="400" stroke="#2b2b44" stroke-width="110"/>
  <line x1="600" y1="200" x2="600" y2="600" stroke="#2b2b44" stroke-width="110"/>
  <line x1="200" y1="400" x2="1000" y2="400" stroke="#3a3a58" stroke-width="70"/>
  <line x1="600" y1="200" x2="600" y2="600" stroke="#3a3a58" stroke-width="70"/>
  <line x1="200" y1="400" x2="1000" y2="400" stroke="#F97316" stroke-opacity="0.35" stroke-width="3"/>
  <line x1="200" y1="400" x2="1000" y2="400" stroke="#F97316" stroke-opacity="0.35" stroke-width="3" transform="translate(0 8)"/>
  <line x1="200" y1="400" x2="1000" y2="400" stroke="#F97316" stroke-opacity="0.35" stroke-width="3" transform="translate(0 -8)"/>
  <line x1="600" y1="200" x2="600" y2="600" stroke="#F97316" stroke-opacity="0.35" stroke-width="3"/>
  <line x1="600" y1="200" x2="600" y2="600" stroke="#F97316" stroke-opacity="0.35" stroke-width="3" transform="translate(8 0)"/>
  <line x1="600" y1="200" x2="600" y2="600" stroke="#F97316" stroke-opacity="0.35" stroke-width="3" transform="translate(-8 0)"/>

  <text x="600" y="300" text-anchor="middle" fill="white" fill-opacity="0.6" font-family="system-ui,sans-serif" font-size="16" font-weight="bold" letter-spacing="2">6-LANE ROAD ARTERY</text>

  <g font-family="system-ui,sans-serif" font-size="13" text-anchor="middle">
    <rect x="300" y="150" width="90" height="20" rx="6" fill="#F97316" fill-opacity="0.3"/>
    <text x="345" y="164" fill="#F97316" font-weight="bold">KERB STONES</text>
    <rect x="300" y="660" width="90" height="20" rx="6" fill="#F97316" fill-opacity="0.3"/>
    <text x="345" y="674" fill="#F97316" font-weight="bold">KERB STONES</text>
    <rect x="460" y="120" width="130" height="20" rx="6" fill="#F97316" fill-opacity="0.3"/>
    <text x="525" y="134" fill="#F97316" font-weight="bold">PAVER FOOTPATH</text>
    <rect x="800" y="120" width="130" height="20" rx="6" fill="#F97316" fill-opacity="0.3"/>
    <text x="865" y="134" fill="#F97316" font-weight="bold">PAVER FOOTPATH</text>
    <rect x="460" y="700" width="130" height="20" rx="6" fill="#F97316" fill-opacity="0.3"/>
    <text x="525" y="714" fill="#F97316" font-weight="bold">PAVER FOOTPATH</text>
    <rect x="800" y="700" width="130" height="20" rx="6" fill="#F97316" fill-opacity="0.3"/>
    <text x="865" y="714" fill="#F97316" font-weight="bold">PAVER FOOTPATH</text>
  </g>

  <g fill="#1a4d2e">
    <rect x="240" y="230" width="26" height="40"/>
    <rect x="560" y="230" width="26" height="40"/>
    <rect x="700" y="470" width="26" height="40"/>
  </g>
  <g fill="#0f3b22">
    <rect x="242" y="236" width="22" height="18"/>
    <rect x="562" y="236" width="22" height="18"/>
    <rect x="702" y="476" width="22" height="18"/>
  </g>
  <g fill="#F97316" fill-opacity="0.7">
    <circle cx="253" cy="212" r="12"/>
    <circle cx="573" cy="212" r="12"/>
    <circle cx="713" cy="452" r="12"/>
  </g>
  <text x="253" y="216" text-anchor="middle" fill="white" font-size="10" font-weight="bold">AV</text>
  <text x="573" y="216" text-anchor="middle" fill="white" font-size="10" font-weight="bold">AV</text>
  <text x="713" y="456" text-anchor="middle" fill="white" font-size="10" font-weight="bold">AV</text>

  <text x="600" y="770" text-anchor="middle" fill="white" fill-opacity="0.3" font-family="system-ui,sans-serif" font-size="12" letter-spacing="2">UNDERGROUND ELECTRICITY CABLING · UNDERGROUND DRAINAGE · AVENUE PLANTATION</text>
</svg>